<svg width="500" height="500" viewBox="0 0 680 680" xmlns="http://www.w3.org/2000/svg">
  <circle cx="340" cy="340" r="290" fill="#6B0000"/>
  <circle cx="340" cy="340" r="290" fill="none" stroke="#C9972C" stroke-width="6"/>
  <circle cx="340" cy="340" r="272" fill="none" stroke="#FAFAF7" stroke-width="1.5" stroke-dasharray="6 4"/>
  <circle cx="340" cy="340" r="220" fill="#1A1A18"/>
  <circle cx="340" cy="340" r="220" fill="none" stroke="#C9972C" stroke-width="3"/>
  <rect x="210" y="210" width="60" height="60" rx="6" fill="#C9972C"/>
  <rect x="218" y="218" width="44" height="44" rx="4" fill="#1A1A18"/>
  <rect x="226" y="226" width="28" height="28" rx="2" fill="#C9972C"/>
  <rect x="410" y="210" width="60" height="60" rx="6" fill="#C9972C"/>
  <rect x="418" y="218" width="44" height="44" rx="4" fill="#1A1A18"/>
  <rect x="426" y="226" width="28" height="28" rx="2" fill="#C9972C"/>
  <rect x="210" y="410" width="60" height="60" rx="6" fill="#C9972C"/>
  <rect x="218" y="418" width="44" height="44" rx="4" fill="#1A1A18"/>
  <rect x="226" y="426" width="28" height="28" rx="2" fill="#C9972C"/>
  <rect x="286" y="216" width="10" height="10" rx="1" fill="#C9972C" opacity="0.8"/>
  <rect x="300" y="216" width="10" height="10" rx="1" fill="#C9972C" opacity="0.6"/>
  <rect x="314" y="216" width="10" height="10" rx="1" fill="#C9972C" opacity="0.9"/>
  <rect x="328" y="216" width="10" height="10" rx="1" fill="#C9972C" opacity="0.5"/>
  <rect x="342" y="216" width="10" height="10" rx="1" fill="#C9972C" opacity="0.8"/>
  <rect x="356" y="216" width="10" height="10" rx="1" fill="#C9972C" opacity="0.4"/>
  <rect x="370" y="216" width="10" height="10" rx="1" fill="#C9972C" opacity="0.7"/>
  <rect x="384" y="216" width="10" height="10" rx="1" fill="#C9972C" opacity="0.9"/>
  <rect x="216" y="286" width="10" height="10" rx="1" fill="#C9972C" opacity="0.6"/>
  <rect x="216" y="300" width="10" height="10" rx="1" fill="#C9972C" opacity="0.9"/>
  <rect x="216" y="314" width="10" height="10" rx="1" fill="#C9972C" opacity="0.4"/>
  <rect x="216" y="328" width="10" height="10" rx="1" fill="#C9972C" opacity="0.8"/>
  <rect x="216" y="342" width="10" height="10" rx="1" fill="#C9972C" opacity="0.5"/>
  <rect x="216" y="356" width="10" height="10" rx="1" fill="#C9972C" opacity="0.7"/>
  <rect x="216" y="370" width="10" height="10" rx="1" fill="#C9972C" opacity="0.9"/>
  <rect x="216" y="384" width="10" height="10" rx="1" fill="#C9972C" opacity="0.6"/>
  <rect x="454" y="286" width="10" height="10" rx="1" fill="#C9972C" opacity="0.8"/>
  <rect x="454" y="300" width="10" height="10" rx="1" fill="#C9972C" opacity="0.5"/>
  <rect x="454" y="314" width="10" height="10" rx="1" fill="#C9972C" opacity="0.9"/>
  <rect x="454" y="328" width="10" height="10" rx="1" fill="#C9972C" opacity="0.4"/>
  <rect x="454" y="342" width="10" height="10" rx="1" fill="#C9972C" opacity="0.7"/>
  <rect x="286" y="454" width="10" height="10" rx="1" fill="#C9972C" opacity="0.9"/>
  <rect x="300" y="454" width="10" height="10" rx="1" fill="#C9972C" opacity="0.5"/>
  <rect x="314" y="454" width="10" height="10" rx="1" fill="#C9972C" opacity="0.7"/>
  <rect x="328" y="454" width="10" height="10" rx="1" fill="#C9972C" opacity="0.4"/>
  <rect x="342" y="454" width="10" height="10" rx="1" fill="#C9972C" opacity="0.9"/>
  <rect x="356" y="454" width="10" height="10" rx="1" fill="#C9972C" opacity="0.6"/>
  <rect x="370" y="454" width="10" height="10" rx="1" fill="#C9972C" opacity="0.8"/>
  <rect x="384" y="454" width="10" height="10" rx="1" fill="#C9972C" opacity="0.5"/>
  <rect x="398" y="454" width="10" height="10" rx="1" fill="#C9972C" opacity="0.7"/>
  <circle cx="340" cy="330" r="90" fill="#FAFAF7"/>
  <text x="340" y="308" text-anchor="middle" font-family="'Playfair Display', Georgia, serif" font-size="52" font-weight="700" fill="#6B0000">SP</text>
  <line x1="296" y1="322" x2="384" y2="322" stroke="#C9972C" stroke-width="2"/>
  <text x="340" y="348" text-anchor="middle" font-family="Georgia, serif" font-size="11" font-weight="500" fill="#1A1A18" letter-spacing="3">PILIMON</text>
  <path id="topArc" d="M 100,340 A 240,240 0 0,1 580,340" fill="none"/>
  <text font-family="'Playfair Display', Georgia, serif" font-size="22" font-weight="700" fill="#FAFAF7" letter-spacing="8">
    <textPath href="#topArc" startOffset="18%">SENTRO</textPath>
  </text>
  <path id="bottomArc" d="M 130,380 A 220,220 0 0,0 550,380" fill="none"/>
  <text font-family="Georgia, serif" font-size="13" fill="#C9972C" letter-spacing="4">
    <textPath href="#bottomArc" startOffset="12%">BULLETIN · QR · CAMPUS</textPath>
  </text>
  <circle cx="340" cy="52" r="5" fill="#C9972C"/>
  <circle cx="340" cy="628" r="5" fill="#C9972C"/>
  <circle cx="52" cy="340" r="5" fill="#C9972C"/>
  <circle cx="628" cy="340" r="5" fill="#C9972C"/>
  <circle cx="135" cy="135" r="3.5" fill="#C9972C" opacity="0.7"/>
  <circle cx="545" cy="135" r="3.5" fill="#C9972C" opacity="0.7"/>
  <circle cx="135" cy="545" r="3.5" fill="#C9972C" opacity="0.7"/>
  <circle cx="545" cy="545" r="3.5" fill="#C9972C" opacity="0.7"/>
</svg>
